<?xml version="1.0" encoding="UTF-8"?><svg id="a" xmlns="http://www.w3.org/2000/svg" viewBox="0 0 1295.6 1080"><defs><style>.b{fill:#ecbc7c;}</style></defs><g><path class="b" d="M305.6,150h-3.8c-8.2,0-51.9-.7-103.4-13.8-66-16.9-117.9-46.5-154.2-88.1l-2.9-3.4,3-3.3c1.7-1.9,43.5-46.4,112.6-46.4H450.5c69.1,0,110.9,44.5,112.7,46.4l3,3.3-2.9,3.4c-36.3,41.6-88.2,71.2-154.2,88.1-51.6,13.2-95.3,13.8-103.5,13.8h0Z"/><path d="M450.5,0c67.7,0,109,44.8,109,44.8-84.8,97.2-235.1,100.2-253.9,100.2h-3.8c-18.8,0-169.1-3-253.9-100.2,0,0,41.3-44.8,109-44.8H450.5m0-10H156.9c-37.2,0-66.8,13-85,23.8-19.8,11.8-30.9,23.8-31.4,24.3l-6.1,6.6,5.9,6.8c20.3,23.2,45.7,43,75.6,58.9,24.2,12.8,51.5,23.2,81.1,30.8,50.8,13,92.9,14,104.6,14h3.8c11.7,0,53.8-1,104.6-14,29.6-7.6,56.9-17.9,81.1-30.8,29.9-15.9,55.4-35.7,75.6-58.9l5.9-6.8-6.1-6.6c-.5-.5-11.5-12.4-31.3-24.2-18-10.9-47.5-23.9-84.7-23.9h0Z"/></g><g><path class="b" d="M64,527.6C-8.8,451.4-5.5,404.6-4.8,399.1V152.9c0-53.3,38.5-93.2,40.1-94.9l3.3-3.4,3.6,3.1c58.2,50.3,85.2,118,97.6,165.9,13.2,50.9,13.1,89.9,13.1,92.7,2.1,65.7-20.2,119.7-39.3,153.3-20.7,36.5-41.6,57.2-42.5,58.1l-3.6,3.5-3.5-3.6Z"/><path d="M38.9,61.5c110.8,95.8,109,254.9,109,254.9,4.1,125.1-80.3,207.7-80.3,207.7C-7.4,445.6,.2,399.4,.2,399.4V152.8c0-51.7,38.7-91.3,38.7-91.3m-.6-13.7l-6.6,6.7c-1.7,1.8-41.5,43.1-41.5,98.4v245.9c-.4,3.7-1,16.5,6.1,36.8,10.4,29.7,31.9,61.8,64,95.4l7,7.3,7.2-7.1c.9-.9,22.3-22.1,43.4-59.2,12.3-21.8,22-44.5,28.7-67.7,8.4-29,12.2-58.6,11.2-88.1,0-3.7-.1-43-13.3-93.9-8-30.8-19.1-59.6-33.2-85.4-17.6-32.5-39.8-60.4-66-83l-7-6.1h0Z"/></g><g><path class="b" d="M536.2,527.8c-.9-.9-21.8-21.6-42.5-58.1-19.1-33.7-41.4-87.6-39.3-153.3,0-2.8-.1-41.8,13.1-92.7,12.5-47.9,39.5-115.6,97.7-166l3.6-3.1,3.2,3.4c1.6,1.7,40.1,41.6,40.1,94.9v246.2c.7,5.5,4,52.3-68.8,128.5l-3.5,3.7-3.6-3.5Z"/><path d="M568.5,61.5s38.7,39.6,38.7,91.4v246.6s7.6,46.1-67.4,124.7c0,0-84.4-82.6-80.3-207.7,0-.1-1.8-159.2,109-255m.5-13.7l-7.1,6.2c-26.2,22.6-48.4,50.6-66,83-14,25.8-25.2,54.6-33.2,85.4-13.2,51-13.3,90.2-13.3,93.9-.9,29.5,2.8,59.2,11.2,88.1,6.7,23.2,16.4,45.9,28.7,67.7,21,37.1,42.5,58.3,43.4,59.2l7.2,7.1,7-7.3c32.1-33.6,53.6-65.7,64-95.4,7.1-20.4,6.5-33.1,6.1-36.8V152.9c0-55.3-39.8-96.7-41.5-98.4l-6.5-6.7h0Z"/></g><g><path class="b" d="M156.9,1085c-69.1,0-110.9-44.5-112.7-46.4l-3-3.3,2.9-3.4c36.3-41.6,88.2-71.2,154.2-88.1,51.5-13.2,95.2-13.8,103.4-13.8h3.8c8.2,0,51.9,.7,103.4,13.8,66,16.9,117.9,46.5,154.2,88.1l2.9,3.4-3,3.3c-1.7,1.9-43.6,46.4-112.7,46.4H156.9Z"/><path d="M305.6,935c18.7,0,169.1,3.1,253.9,100.2,0,0-41.3,44.8-109,44.8H156.9c-67.7,0-109-44.8-109-44.8,84.8-97.2,235.1-100.2,253.8-100.2h3.9m0-10h-3.8c-11.7,0-53.8,1-104.6,14-29.6,7.6-56.9,17.9-81.1,30.8-29.9,15.9-55.4,35.7-75.6,58.9l-5.9,6.8,6.1,6.6c.5,.5,11.5,12.4,31.3,24.2,18.2,10.9,47.8,23.8,85,23.8H450.6c37.2,0,66.8-13,85-23.8,19.8-11.8,30.9-23.7,31.3-24.2l6.1-6.6-5.9-6.8c-20.3-23.2-45.7-43-75.6-58.9-24.2-12.8-51.5-23.2-81.1-30.8-51-13-93.1-14-104.8-14h0Z"/></g><g><path class="b" d="M35.3,1022c-1.6-1.7-40.1-41.6-40.1-94.9v-246.3c-.7-5.5-4-52.3,68.8-128.5l3.5-3.7,3.6,3.5c.9,.9,21.8,21.6,42.5,58.1,19.1,33.7,41.4,87.6,39.3,153.3,0,2.8,.1,41.8-13.1,92.7-12.4,47.9-39.4,115.6-97.6,165.9l-3.6,3.1-3.3-3.2Z"/><path d="M67.6,555.8s84.4,82.6,80.3,207.7c0,0,1.8,159.1-109,254.9,0,0-38.7-39.6-38.7-91.4v-246.6c0,.1-7.6-46.1,67.4-124.6m-.2-14.2l-7,7.3c-32.1,33.6-53.6,65.7-64,95.4-7.1,20.4-6.5,33.1-6.1,36.8v245.9c0,55.3,39.8,96.7,41.5,98.4l6.6,6.7,7.1-6.2c26.2-22.6,48.4-50.6,66-83,14-25.8,25.2-54.6,33.2-85.4,13.2-51,13.3-90.2,13.3-93.9,.9-29.5-2.8-59.2-11.2-88.1-6.7-23.2-16.4-45.9-28.7-67.7-21-37.1-42.5-58.3-43.4-59.2l-7.3-7h0Z"/></g><g><path class="b" d="M565.2,1022.3c-58.2-50.3-85.2-118-97.6-165.9-13.2-50.9-13.1-89.9-13.1-92.7-2.1-65.7,20.2-119.7,39.3-153.3,20.7-36.5,41.6-57.2,42.5-58.1l3.6-3.5,3.5,3.7c72.8,76.2,69.5,123,68.8,128.5v246.2c0,53.3-38.5,93.2-40.1,94.9l-3.3,3.4-3.6-3.2Z"/><path d="M539.7,555.8c75,78.5,67.4,124.7,67.4,124.7v246.6c0,51.9-38.7,91.4-38.7,91.4-110.8-95.8-109-254.9-109-254.9-4-125.2,80.3-207.8,80.3-207.8m.3-14.2l-7.2,7.1c-.9,.9-22.3,22.1-43.4,59.2-12.3,21.8-22,44.5-28.7,67.7-8.4,29-12.2,58.6-11.2,88.1,0,3.7,.1,43,13.3,93.9,8,30.8,19.1,59.6,33.2,85.4,17.6,32.5,39.8,60.4,66,83l7.1,6.2,6.6-6.7c1.7-1.7,41.5-43.1,41.5-98.4v-245.9c.4-3.7,1-16.5-6.1-36.8-10.4-29.7-31.9-61.8-64-95.4l-7.1-7.4h0Z"/></g><g><path class="b" d="M303.7,613.9c-71.8,0-127.8-19-162.1-34.9-37.3-17.3-57.3-34.5-58.2-35.2l-4.4-3.8,4.4-3.8c.8-.7,20.9-17.9,58.2-35.2,34.3-15.9,90.2-34.9,162.1-34.9s127.8,19,162.1,34.9c37.3,17.3,57.3,34.5,58.2,35.2l4.4,3.8-4.4,3.8c-.8,.7-20.9,17.9-58.2,35.2-34.4,15.9-90.3,34.9-162.1,34.9Z"/><path d="M303.7,471.1c137.3,0,217,68.9,217,68.9,0,0-79.7,68.9-217,68.9s-217-68.9-217-68.9c0,0,79.7-68.9,217-68.9m0-10c-32.1,0-63.8,3.7-94.2,11-24.3,5.9-47.9,14-70,24.3-37.9,17.6-58.5,35.2-59.3,35.9l-8.8,7.6,8.8,7.6c.9,.7,21.4,18.3,59.3,35.9,22.1,10.3,45.7,18.5,70,24.3,30.4,7.3,62.1,11,94.2,11s63.8-3.7,94.2-11c24.3-5.9,47.9-14,70-24.3,37.9-17.6,58.5-35.2,59.3-35.9l8.8-7.6-8.8-7.6c-.9-.7-21.4-18.3-59.3-35.9-22.1-10.3-45.7-18.5-70-24.3-30.4-7.2-62.1-11-94.2-11h0Z"/></g><g><path class="b" d="M985.4,150h-3.8c-8.2,0-51.9-.7-103.4-13.8-66-16.9-117.9-46.5-154.2-88.1l-2.9-3.4,3-3.3c1.6-1.9,43.4-46.4,112.5-46.4h293.6c69.1,0,110.9,44.5,112.7,46.4l3,3.3-2.9,3.4c-36.3,41.6-88.2,71.2-154.2,88.1-51.6,13.2-95.2,13.8-103.4,13.8h0Z"/><path d="M1130.2,0c67.7,0,109,44.8,109,44.8-84.8,97.2-235.1,100.2-253.8,100.2h-3.8c-18.8,0-169.1-3.1-253.9-100.2C727.7,44.8,769,0,836.7,0h146.8s79,0,146.7,0m0-10h-293.6c-37.2,0-66.8,13-85,23.8-19.8,11.8-30.9,23.7-31.3,24.2l-6.1,6.6,5.9,6.8c20.3,23.2,45.7,43,75.6,58.9,24.2,12.8,51.5,23.2,81.1,30.8,50.8,13,92.9,14,104.6,14h3.8c11.7,0,53.8-1,104.6-14,29.6-7.6,56.9-17.9,81.1-30.8,29.9-15.9,55.4-35.7,75.6-58.9l5.9-6.8-6.1-6.6c-.5-.5-11.5-12.4-31.3-24.2-18-10.8-47.5-23.8-84.8-23.8h0Z"/></g><g><path class="b" d="M743.7,527.6c-72.8-76.2-69.5-123-68.8-128.5V152.9c0-53.3,38.5-93.2,40.1-94.9l3.3-3.4,3.6,3.1c58.2,50.3,85.2,118,97.6,165.9,13.2,50.9,13.1,89.9,13.1,92.7,2.1,65.7-20.2,119.7-39.3,153.3-20.7,36.5-41.6,57.2-42.5,58.1l-3.6,3.5-3.5-3.6Z"/><path d="M718.6,61.5c110.8,95.8,109,254.9,109,254.9,4.1,125.1-80.3,207.7-80.3,207.7-75-78.5-67.4-124.7-67.4-124.7V152.8c.1-51.7,38.7-91.3,38.7-91.3m-.5-13.7l-6.6,6.7c-1.7,1.7-41.5,43.1-41.5,98.4v245.9c-.4,3.7-1,16.5,6.1,36.8,10.4,29.7,31.9,61.8,64,95.4l7,7.3,7.2-7.1c.9-.9,22.3-22.1,43.4-59.2,12.3-21.8,22-44.5,28.7-67.7,8.4-29,12.2-58.6,11.2-88.1,0-3.7-.1-43-13.3-93.9-8-30.8-19.1-59.6-33.2-85.4-17.6-32.5-39.8-60.4-66-83l-7-6.1h0Z"/></g><g><path class="b" d="M1216,527.8c-.9-.9-21.8-21.6-42.5-58.1-19.1-33.7-41.4-87.6-39.3-153.3,0-2.8-.1-41.8,13.1-92.7,12.4-47.9,39.4-115.6,97.6-165.9l3.6-3.1,3.3,3.4c1.6,1.7,40.1,41.6,40.1,94.9v246.2c.7,5.5,4,52.3-68.8,128.5l-3.5,3.7-3.6-3.6Z"/><path d="M1248.2,61.5s38.7,39.6,38.7,91.4v246.6s7.6,46.1-67.4,124.7c0,0-84.4-82.6-80.3-207.7,0-.1-1.8-159.2,109-255m.6-13.7l-7.1,6.2c-26.2,22.6-48.4,50.6-66,83-14,25.8-25.2,54.6-33.2,85.4-13.2,51-13.3,90.2-13.3,93.9-.9,29.5,2.8,59.2,11.2,88.1,6.7,23.2,16.4,45.9,28.7,67.7,21,37.1,42.5,58.3,43.4,59.2l7.2,7.1,7-7.3c32.1-33.6,53.6-65.7,64-95.4,7.1-20.4,6.5-33.1,6.1-36.8V152.9c0-55.3-39.8-96.7-41.5-98.4l-6.5-6.7h0Z"/></g><g><path class="b" d="M836.6,1085c-69.1,0-110.9-44.5-112.7-46.4l-3-3.3,2.9-3.4c36.3-41.6,88.2-71.2,154.2-88.1,51.5-13.2,95.2-13.8,103.4-13.8h3.8c8.2,0,51.9,.7,103.4,13.8,66,16.9,117.9,46.5,154.2,88.1l2.9,3.4-3,3.3c-1.7,1.9-43.6,46.4-112.7,46.4h-293.4Z"/><path d="M985.4,935c18.7,0,169.1,3.1,253.9,100.2,0,0-41.3,44.8-109,44.8h-293.6c-67.7,0-109-44.8-109-44.8,84.7-97.2,235-100.2,253.8-100.2h3.9m0-10h-3.8c-11.7,0-53.8,1-104.6,14-29.6,7.6-56.9,17.9-81.1,30.8-29.9,15.9-55.4,35.7-75.6,58.9l-5.9,6.8,6.1,6.6c.5,.5,11.5,12.4,31.3,24.2,18.2,10.9,47.8,23.8,85,23.8h293.6c37.2,0,66.8-13,85-23.8,19.8-11.8,30.9-23.7,31.3-24.2l6.1-6.6-5.9-6.8c-20.3-23.2-45.7-43-75.6-58.9-24.2-12.8-51.5-23.2-81.1-30.8-51-13-93.1-14-104.8-14h0Z"/></g><g><path class="b" d="M715.1,1022c-1.6-1.7-40.1-41.6-40.1-94.9v-246.3c-.7-5.5-4-52.3,68.8-128.5l3.5-3.7,3.6,3.5c.9,.9,21.8,21.6,42.5,58.1,19.1,33.7,41.4,87.6,39.3,153.3,0,2.8,.1,41.8-13.1,92.7-12.4,47.9-39.4,115.6-97.6,165.9l-3.6,3.1-3.3-3.2Z"/><path d="M747.4,555.8s84.4,82.6,80.3,207.7c0,0,1.8,159.1-109,254.9,0,0-38.7-39.6-38.7-91.4v-246.6c0,.1-7.7-46.1,67.4-124.6m-.3-14.2l-7,7.3c-32.1,33.6-53.6,65.7-64,95.4-7.1,20.4-6.5,33.1-6.1,36.8v245.9c0,55.3,39.8,96.7,41.5,98.4l6.6,6.7,7.1-6.2c26.2-22.6,48.4-50.6,66-83,14-25.8,25.2-54.6,33.2-85.4,13.2-51,13.3-90.2,13.3-93.9,.9-29.5-2.8-59.2-11.2-88.1-6.7-23.2-16.4-45.9-28.7-67.7-21-37.1-42.5-58.3-43.4-59.2l-7.3-7h0Z"/></g><g><path class="b" d="M1244.9,1022.3c-58.2-50.3-85.2-118-97.6-165.9-13.2-50.9-13.1-89.9-13.1-92.7-2.1-65.7,20.2-119.7,39.3-153.3,20.7-36.5,41.6-57.2,42.5-58.1l3.6-3.5,3.5,3.7c72.8,76.2,69.5,123,68.8,128.5v246.2c0,53.3-38.5,93.2-40.1,94.9l-3.3,3.4-3.6-3.2Z"/><path d="M1219.5,555.8c75,78.5,67.4,124.7,67.4,124.7v246.6c0,51.9-38.7,91.4-38.7,91.4-110.8-95.8-109-254.9-109-254.9-4.1-125.2,80.3-207.8,80.3-207.8m.2-14.2l-7.2,7.1c-.9,.9-22.3,22.1-43.4,59.2-12.3,21.8-22,44.5-28.7,67.7-8.4,29-12.2,58.6-11.2,88.1,0,3.7,.1,43,13.3,93.9,8,30.8,19.1,59.6,33.2,85.4,17.6,32.5,39.8,60.4,66,83l7.1,6.2,6.6-6.7c1.7-1.7,41.5-43.1,41.5-98.4v-245.9c.4-3.7,1-16.5-6.1-36.8-10.4-29.7-31.9-61.8-64-95.4l-7.1-7.4h0Z"/></g><g><path class="b" d="M983.4,613.9c-71.8,0-127.8-19-162.1-34.9-37.3-17.3-57.3-34.5-58.2-35.2l-4.4-3.8,4.4-3.8c.8-.7,20.9-17.9,58.2-35.2,34.3-15.9,90.2-34.9,162.1-34.9s127.8,19,162.1,34.9c37.3,17.3,57.3,34.5,58.2,35.2l4.4,3.8-4.4,3.8c-.8,.7-20.9,17.9-58.2,35.2-34.3,15.9-90.3,34.9-162.1,34.9Z"/><path d="M983.4,471.1c137.3,0,217,68.9,217,68.9,0,0-79.7,68.9-217,68.9s-217-68.9-217-68.9c0,0,79.7-68.9,217-68.9m0-10c-32.1,0-63.8,3.7-94.2,11-24.3,5.9-47.9,14-70,24.3-37.9,17.6-58.5,35.2-59.3,35.9l-8.8,7.6,8.8,7.6c.9,.7,21.4,18.3,59.3,35.9,22.1,10.3,45.7,18.5,70,24.3,30.4,7.3,62.1,11,94.2,11s63.8-3.7,94.2-11c24.3-5.9,47.9-14,70-24.3,37.9-17.6,58.5-35.2,59.3-35.9l8.8-7.6-8.8-7.6c-.9-.7-21.4-18.3-59.3-35.9-22.1-10.3-45.7-18.5-70-24.3-30.4-7.2-62.1-11-94.2-11h0Z"/></g></svg>