<svg width="219" height="190" viewBox="0 0 219 190" fill="none" xmlns="http://www.w3.org/2000/svg">
<g clip-path="url(#clip0_270_150)">
<path d="M2.48853 95L54.804 4.33545L107.065 95L54.804 185.665L2.48853 95Z" fill="#212121"/>
<path d="M54.8041 8.67085L104.577 95L54.8041 181.329L5.03137 95L54.8041 8.67085ZM54.8041 0L0 95L54.8041 190L109.608 95L54.8041 0Z" fill="white"/>
<path d="M58.5371 187.832L110.798 97.1677H215.267L163.006 187.832H58.5371Z" fill="white"/>
<path d="M211.534 99.3354L161.761 185.665H62.2701L112.043 99.3354H211.534ZM219 95H109.554L54.8042 190H164.304L219 95Z" fill="white"/>
<path d="M110.798 92.8323L58.5371 2.16772H163.006L215.267 92.8323H110.798Z" fill="white"/>
<path d="M161.761 4.33542L211.534 90.6646H112.043L62.2701 4.33542H161.761ZM164.25 0H54.8042L109.608 95H219.054L164.25 0Z" fill="white"/>
</g>
<defs>
<clipPath id="clip0_270_150">
<rect width="219" height="190" fill="white"/>
</clipPath>
</defs>
</svg>
